<svg id="Layer_1" data-name="Layer 1" xmlns="http://www.w3.org/2000/svg" xmlns:xlink="http://www.w3.org/1999/xlink" viewBox="0 0 600 1500"><defs><style>.cls-1{fill:#dcdbda;}.cls-10,.cls-12,.cls-18,.cls-2,.cls-21,.cls-25,.cls-26,.cls-27,.cls-44,.cls-5,.cls-54,.cls-55,.cls-56{fill:none;}.cls-10,.cls-12,.cls-2,.cls-51,.cls-52,.cls-53,.cls-56{stroke:#231f20;}.cls-2{stroke-linejoin:bevel;}.cls-3{fill:#33a0a8;}.cls-20,.cls-4{fill:#989798;}.cls-5{stroke:#dcdbda;}.cls-10,.cls-12,.cls-18,.cls-21,.cls-25,.cls-26,.cls-27,.cls-39,.cls-40,.cls-41,.cls-44,.cls-5,.cls-51,.cls-52,.cls-53,.cls-54,.cls-55,.cls-56{stroke-miterlimit:10;}.cls-18,.cls-41,.cls-5{stroke-width:3px;}.cls-6{fill:url(#linear-gradient);}.cls-7{font-size:7.63px;}.cls-22,.cls-23,.cls-28,.cls-37,.cls-38,.cls-40,.cls-41,.cls-42,.cls-43,.cls-47,.cls-48,.cls-49,.cls-50,.cls-7{fill:#010101;}.cls-22,.cls-23,.cls-28,.cls-7,.cls-8{font-family:Helvetica;}.cls-8{font-size:7.88px;fill:#231f20;}.cls-9{letter-spacing:-0.02em;}.cls-10,.cls-18,.cls-21{stroke-linecap:round;}.cls-11{fill:url(#linear-gradient-2);}.cls-13{fill:url(#linear-gradient-3);}.cls-14{fill:url(#linear-gradient-4);}.cls-15{fill:url(#linear-gradient-5);}.cls-16{fill:url(#linear-gradient-6);}.cls-17,.cls-19,.cls-53{fill:#8b3030;}.cls-18,.cls-21,.cls-27,.cls-39,.cls-40,.cls-41,.cls-44,.cls-54{stroke:#010101;}.cls-18{stroke-dasharray:0 7;opacity:0.75;}.cls-19,.cls-20{opacity:0.85;}.cls-22{font-size:13.06px;}.cls-23{font-size:7.83px;}.cls-24{letter-spacing:-0.11em;}.cls-25{stroke:#676767;}.cls-26{stroke:#8b3030;}.cls-27{stroke-width:0.75px;}.cls-28{font-size:4.18px;}.cls-29{letter-spacing:-0.07em;}.cls-30{letter-spacing:-0.05em;}.cls-31{letter-spacing:-0.02em;}.cls-32{letter-spacing:-0.02em;}.cls-33{letter-spacing:-0.04em;}.cls-34{letter-spacing:-0.05em;}.cls-35{letter-spacing:-0.04em;}.cls-36{letter-spacing:-0.01em;}.cls-37{font-size:30px;font-family:Helvetica-Bold, Helvetica;font-weight:700;}.cls-38{font-size:25px;}.cls-38,.cls-42,.cls-43,.cls-47,.cls-48{font-family:Helvetica-Light, Helvetica;font-weight:300;}.cls-39{fill:#c4c4c4;}.cls-39,.cls-40{stroke-width:0.25px;}.cls-42{font-size:4.14px;}.cls-43{font-size:12px;}.cls-45,.cls-52{fill:#db7a27;}.cls-46,.cls-51{fill:#ffca39;}.cls-47{font-size:15px;}.cls-48{font-size:11px;}.cls-49{font-size:14px;font-family:MyriadPro-Regular, Myriad Pro;}.cls-51,.cls-52,.cls-53,.cls-54,.cls-55,.cls-56{stroke-width:2px;}.cls-55{stroke:#33a0a8;}</style><linearGradient id="linear-gradient" x1="3457.92" y1="-179.98" x2="3459.83" y2="-179.98" gradientTransform="translate(303.6 4801.34) rotate(-90)" gradientUnits="userSpaceOnUse"><stop offset="0" stop-color="#8a3030"/><stop offset="1" stop-color="#8a3030" stop-opacity="0.5"/></linearGradient><linearGradient id="linear-gradient-2" x1="1985.49" y1="4080.71" x2="1985.49" y2="4137.35" gradientTransform="translate(4283.9 -744.03) rotate(90)" xlink:href="#linear-gradient"/><linearGradient id="linear-gradient-3" x1="2024.33" y1="4091.84" x2="2024.33" y2="4137.35" gradientTransform="translate(4283.9 -744.03) rotate(90)" xlink:href="#linear-gradient"/><linearGradient id="linear-gradient-4" x1="2014.62" y1="4130.27" x2="2014.62" y2="4137.35" gradientTransform="translate(4283.9 -744.03) rotate(90)" xlink:href="#linear-gradient"/><linearGradient id="linear-gradient-5" x1="2004.91" y1="4084.76" x2="2004.91" y2="4137.35" gradientTransform="translate(4283.9 -744.03) rotate(90)" xlink:href="#linear-gradient"/><linearGradient id="linear-gradient-6" x1="1995.2" y1="4057.45" x2="1995.2" y2="4137.35" gradientTransform="translate(4283.9 -744.03) rotate(90)" xlink:href="#linear-gradient"/></defs><rect class="cls-1" width="600" height="1500"/><circle class="cls-2" cx="170.79" cy="1342.47" r="6.74"/><path class="cls-3" d="M66.13,1342.5s2.58-2.75,4.42-.9,3,.9,3,.9-2.69,2.66-4.54.82S66.13,1342.5,66.13,1342.5Z"/><rect class="cls-4" x="171.69" y="1341.51" width="109.19" height="1.91" rx="0.96"/><line class="cls-5" x1="190.81" y1="1343.42" x2="190.81" y2="1341.51"/><line class="cls-5" x1="220.79" y1="1343.42" x2="220.79" y2="1341.51"/><line class="cls-5" x1="250.77" y1="1341.51" x2="250.77" y2="1343.42"/><rect class="cls-6" x="77.5" y="1341.51" width="92.23" height="1.91" rx="0.96"/><line class="cls-5" x1="79.49" y1="1341.51" x2="79.49" y2="1343.42"/><line class="cls-5" x1="109.46" y1="1341.51" x2="109.46" y2="1343.42"/><line class="cls-5" x1="139.44" y1="1343.42" x2="139.44" y2="1341.51"/><text class="cls-7" transform="translate(188.69 1338.36)">5</text><text class="cls-7" transform="translate(216.54 1338.36)">10</text><text class="cls-7" transform="translate(246.52 1338.36)">15</text><text class="cls-7" transform="translate(75.24 1338.36)">15</text><text class="cls-7" transform="translate(105.22 1338.36)">10</text><text class="cls-7" transform="translate(137.32 1338.36)">5</text><text class="cls-8" transform="translate(109.46 1379.92)">duration <tspan x="0" y="9.46">of fire x10 </tspan><tspan x="0" y="18.92">(days)</tspan></text><text class="cls-8" transform="translate(56.17 1379.92)"># of days <tspan x="0" y="9.46">rained </tspan><tspan x="0" y="18.92">during </tspan><tspan x="0" y="28.38">fir</tspan><tspan class="cls-9" x="6.57" y="28.38">e</tspan></text><polyline class="cls-10" points="169.73 1363.3 123.61 1363.3 77.5 1363.3"/><polyline class="cls-10" points="280.88 1352.43 280.88 1363.3 171.69 1363.3"/><polyline class="cls-10" points="66.13 1352.43 66.13 1363.31 74.08 1363.31"/><line class="cls-10" x1="74.08" y1="1363.31" x2="74.08" y2="1352.43"/><line class="cls-10" x1="69.83" y1="1363.31" x2="69.83" y2="1369.84"/><line class="cls-10" x1="77.5" y1="1352.43" x2="77.5" y2="1363.31"/><text class="cls-8" transform="translate(200.65 1380.23)"># of buildings <tspan x="0" y="9.46">at risk x10,000</tspan></text><line class="cls-10" x1="226.29" y1="1363.3" x2="226.29" y2="1369.84"/><line class="cls-10" x1="169.73" y1="1352.43" x2="169.73" y2="1363.3"/><line class="cls-10" x1="171.69" y1="1352.43" x2="171.69" y2="1363.3"/><line class="cls-10" x1="110.72" y1="1369.84" x2="110.72" y2="1363.3"/><g id="ID_murphy_complex" data-name="ID murphy complex"><rect class="cls-11" x="146.54" y="1240.55" width="56.64" height="1.82" rx="0.91"/><rect class="cls-4" x="89.21" y="1240.55" width="55.63" height="1.82" rx="0.91"/><circle class="cls-12" cx="145.75" cy="1241.46" r="4.61"/></g><g id="ID_mustang_complex" data-name="ID mustang complex"><rect class="cls-13" x="146.54" y="1279.39" width="45.52" height="1.82" rx="0.91"/><rect class="cls-4" x="126.64" y="1279.39" width="18.21" height="1.82" rx="0.91"/><circle class="cls-12" cx="145.75" cy="1280.3" r="4.61"/></g><g id="ID_long_butte" data-name="ID long butte"><rect class="cls-14" x="146.54" y="1269.68" width="7.08" height="1.82" rx="0.91"/><path class="cls-4" d="M144.85,1271.5h-.11a.91.91,0,0,1-.91-.91h0a.91.91,0,0,1,.91-.91h.11"/><circle class="cls-12" cx="145.75" cy="1270.59" r="4.13"/></g><g id="ID_cascade_complex" data-name="ID cascade complex"><rect class="cls-15" x="146.54" y="1259.97" width="52.6" height="1.82" rx="0.91"/><rect class="cls-4" x="117.54" y="1259.97" width="27.31" height="1.82" rx="0.91"/><circle class="cls-12" cx="145.75" cy="1260.88" r="4.07"/></g><g id="ID_east_zone_complex" data-name="ID east zone complex"><rect class="cls-16" x="146.54" y="1250.26" width="79.91" height="1.82" rx="0.91"/><rect class="cls-4" x="119.56" y="1250.26" width="25.29" height="1.82" rx="0.91"/><circle class="cls-12" cx="145.75" cy="1251.17" r="4.07"/></g><path class="cls-17" d="M130.89,988.57l2.21,9.6.48,2.67.48-2.62,1.9-9.65h3.69l2,9.6.51,2.67.52-2.57,2.23-9.7h3.57l-4.71,16.76H140.4l-2-9.8-.59-3.24-.59,3.24-2,9.8h-3.25l-4.75-16.76Z"/><path class="cls-17" d="M154.1,988.57h4l5.93,16.76H160.2l-1.11-3.45h-6.17l-1.14,3.45h-3.66ZM153.87,999h4.29l-2.11-6.6Z"/><line class="cls-18" x1="146.32" y1="1012.02" x2="146.32" y2="1225"/><circle class="cls-19" cx="146.32" cy="1029.63" r="8.11"/><circle class="cls-20" cx="145.58" cy="1053.17" r="13.76"/><line class="cls-21" x1="168.38" y1="995.67" x2="193.44" y2="995.67"/><text class="cls-22" transform="translate(197.26 1000.23)">State</text><line class="cls-21" x1="158.97" y1="1029.1" x2="184.04" y2="1029.1"/><text class="cls-23" transform="translate(186.81 1031.82)"><tspan class="cls-24">T</tspan><tspan x="3.92" y="0">otal Hectare Burned by Lightning Fires</tspan></text><text class="cls-23" transform="translate(225.2 1194.5)"><tspan class="cls-24">T</tspan><tspan x="3.92" y="0">otal Number</tspan><tspan x="0" y="9.4">of Lightning Fires</tspan></text><line class="cls-21" x1="162.37" y1="1053.38" x2="187.44" y2="1053.38"/><text class="cls-23" transform="translate(190.47 1055.85)"><tspan class="cls-24">T</tspan><tspan x="3.92" y="0">otal Number of Properties</tspan><tspan x="0" y="9.4">Threatened by Lightning Fires</tspan></text><line class="cls-21" x1="69.93" y1="1194.78" x2="219.74" y2="1194.78"/><line class="cls-21" x1="69.93" y1="1187.73" x2="69.93" y2="1201.83"/><line class="cls-21" x1="99.88" y1="1187.73" x2="99.88" y2="1201.83"/><line class="cls-21" x1="129.83" y1="1188.25" x2="129.83" y2="1202.35"/><line class="cls-21" x1="159.78" y1="1189.29" x2="159.78" y2="1203.39"/><line class="cls-21" x1="189.73" y1="1189.29" x2="189.73" y2="1203.39"/><line class="cls-21" x1="219.69" y1="1189.29" x2="219.69" y2="1203.39"/><polyline class="cls-21" points="227.85 1232.66 238 1232.66 238.35 1284.91 228.2 1284.91"/><text class="cls-23" transform="translate(251.09 1260.88)"><tspan class="cls-24">T</tspan><tspan x="3.92" y="0">op Five Fires</tspan><tspan x="0" y="9.4">Statewide</tspan></text><circle class="cls-25" cx="449.33" cy="1292.4" r="50.03"/><circle class="cls-25" cx="449.33" cy="1337.88" r="4.55"/><circle class="cls-25" cx="449.33" cy="1328.79" r="13.64"/><circle class="cls-25" cx="449.33" cy="1319.69" r="22.74"/><circle class="cls-25" cx="449.33" cy="1310.59" r="31.83"/><circle class="cls-25" cx="449.33" cy="1301.5" r="40.93"/><circle class="cls-26" cx="449.97" cy="1143.16" r="57.3"/><circle class="cls-26" cx="449.97" cy="1194.1" r="6.37"/><circle class="cls-26" cx="449.97" cy="1181.37" r="19.1"/><circle class="cls-26" cx="449.97" cy="1168.63" r="31.83"/><circle class="cls-26" cx="449.97" cy="1155.9" r="44.57"/><line class="cls-27" x1="449.87" y1="1187.64" x2="528.64" y2="1187.64"/><line class="cls-27" x1="449.97" y1="1333.33" x2="528.73" y2="1333.33"/><line class="cls-27" x1="449.97" y1="1314.78" x2="528.73" y2="1314.78"/><line class="cls-27" x1="449.97" y1="1296.77" x2="528.73" y2="1296.77"/><line class="cls-27" x1="449.97" y1="1278.4" x2="528.73" y2="1278.4"/><line class="cls-27" x1="449.97" y1="1260.2" x2="528.73" y2="1260.2"/><line class="cls-27" x1="449.97" y1="1242.01" x2="528.73" y2="1242.01"/><line class="cls-27" x1="449.97" y1="1161.81" x2="528.73" y2="1161.81"/><line class="cls-27" x1="449.97" y1="1136.34" x2="528.73" y2="1136.34"/><line class="cls-27" x1="449.97" y1="1110.87" x2="528.73" y2="1110.87"/><line class="cls-27" x1="449.97" y1="1085.59" x2="528.73" y2="1085.59"/><text class="cls-28" transform="translate(531.27 1243.3)">350k</text><text class="cls-28" transform="translate(531.27 1086.88)">2,400k</text><text class="cls-28" transform="translate(531.27 1112.44)">1,850k</text><text class="cls-28" transform="translate(531.27 1138)">1,300k</text><text class="cls-28" transform="translate(531.27 1163.56)">750k</text><text class="cls-28" transform="translate(531.27 1189.11)">200k</text><text class="cls-28" transform="translate(531.27 1261.71)">290k</text><text class="cls-28" transform="translate(531.27 1280.12)">230k</text><text class="cls-28" transform="translate(531.27 1298.53)">170k</text><text class="cls-28" transform="translate(531.27 1316.94)"><tspan class="cls-29">1</tspan><tspan x="2.02" y="0">10k</tspan></text><text class="cls-28" transform="translate(531.27 1335.35)">20k</text><line class="cls-21" x1="238.19" y1="1260.88" x2="247.25" y2="1260.88"/><text class="cls-7" transform="translate(431.14 967.34)">AZ<tspan x="0" y="9.16">C</tspan><tspan class="cls-30" x="5.51" y="9.16">A</tspan><tspan x="0" y="18.32">CO</tspan><tspan x="0" y="27.49">ID</tspan><tspan x="0" y="36.65">M</tspan><tspan class="cls-31" x="6.36" y="36.65">T</tspan><tspan x="0" y="45.81">NM</tspan><tspan x="0" y="54.97">NV</tspan><tspan x="0" y="64.13">OR</tspan><tspan x="0" y="73.29">U</tspan><tspan class="cls-32" x="5.51" y="73.29">T</tspan><tspan class="cls-33"><tspan x="0" y="82.46">W</tspan><tspan class="cls-30" x="6.93" y="82.46">A</tspan></tspan><tspan x="0" y="91.62">W</tspan><tspan class="cls-32" x="7.21" y="91.62">Y</tspan></text><text class="cls-7" transform="translate(447.55 967.34)">-<tspan class="cls-34" x="2.54" y="0"> </tspan><tspan x="4.25" y="0">Arizona</tspan><tspan x="0" y="9.16">- California</tspan><tspan x="0" y="18.32">- Colorado</tspan><tspan x="0" y="27.49">- Idaho</tspan><tspan x="0" y="36.65">- Montana</tspan><tspan x="0" y="45.81">- New Mexico</tspan><tspan x="0" y="54.97">- Nevada</tspan><tspan x="0" y="64.13">- Oregon</tspan><tspan x="0" y="73.29">- Utah</tspan><tspan x="0" y="82.46">- </tspan><tspan class="cls-35" x="4.66" y="82.46">W</tspan><tspan x="11.59" y="82.46">ashington</tspan><tspan x="0" y="91.62">- </tspan><tspan class="cls-36" x="4.66" y="91.62">W</tspan><tspan x="11.8" y="91.62">yoming</tspan></text><text class="cls-37" transform="translate(209.17 105.48)">How to Read</text><text class="cls-38" transform="translate(265.96 263.66)">Wall 1</text><text class="cls-38" transform="translate(265.96 919.14)">Wall 2</text><circle class="cls-39" cx="233.34" cy="394.84" r="56"/><circle class="cls-39" cx="233.34" cy="400.84" r="50"/><circle class="cls-39" cx="233.34" cy="406.99" r="43.85"/><circle class="cls-39" cx="233.34" cy="413.14" r="37.7"/><circle class="cls-39" cx="233.34" cy="419.3" r="31.55"/><circle class="cls-39" cx="233.34" cy="425.44" r="25.41"/><circle class="cls-40" cx="366.16" cy="393.93" r="56.5"/><path class="cls-41" d="M366.16,393.93l-18.94-46.86a48.6,48.6,0,0,1,18.94-3.68Z"/><path class="cls-41" d="M366.16,393.93l-45.81-21.36a49.12,49.12,0,0,1,26.87-25.5Z"/><path class="cls-41" d="M366.16,393.93V343.39a50.55,50.55,0,1,1-50.55,50.54,46.9,46.9,0,0,1,4.74-21.36Z"/><circle class="cls-40" cx="366.16" cy="393.93" r="38.88"/><text class="cls-42" transform="translate(229.89 387.12)">100</text><text class="cls-42" transform="translate(231.04 399.12)">50</text><text class="cls-42" transform="translate(229.89 375.12)">150</text><text class="cls-42" transform="translate(229.89 362.12)">200</text><text class="cls-42" transform="translate(229.32 349.12)">25 0</text><text class="cls-42" transform="translate(229.89 337.67)">300</text><text class="cls-43" transform="translate(207.64 306.79)">Total # of <tspan x="13.35" y="14.4">Fires</tspan></text><text class="cls-43" transform="translate(309.18 320.96)">% of fires (by cause)</text><circle class="cls-44" cx="233.34" cy="431.34" r="19.5"/><circle class="cls-44" cx="229.7" cy="512.17" r="19.5"/><circle class="cls-17" cx="229.7" cy="512.17" r="16.5"/><circle class="cls-44" cx="306.7" cy="512.17" r="19.5"/><circle class="cls-45" cx="306.7" cy="512.17" r="16.5"/><circle class="cls-44" cx="378.7" cy="512.17" r="19.5"/><circle class="cls-46" cx="378.7" cy="512.17" r="16.5"/><text class="cls-47" transform="translate(199.65 551.97)">Lightning</text><text class="cls-47" transform="translate(372.97 634.59)">Month’s average precipitation<tspan x="25.11" y="18">&lt; or &gt; overall average</tspan></text><text class="cls-47" transform="translate(371.3 726.77)">Month’s average termperature<tspan x="26.77" y="18">&lt; or &gt; overall average</tspan></text><text class="cls-47" transform="translate(283 551.97)">Human</text><text class="cls-47" transform="translate(357.15 551.97)">Other*</text><text class="cls-48" transform="translate(207.92 575.15)">*Includes Natural, Unknown, and Other</text><text class="cls-49" transform="translate(219.16 435.21)">15 &lt;</text><circle class="cls-50" cx="301.53" cy="681.45" r="57.01"/><path class="cls-51" d="M301.53,681.45,282.6,634.59a48.55,48.55,0,0,1,18.93-3.68Z"/><path class="cls-52" d="M301.53,681.45l-45.81-21.36a49.17,49.17,0,0,1,26.88-25.5Z"/><path class="cls-53" d="M301.53,681.45V630.91A50.55,50.55,0,1,1,251,681.45a47,47,0,0,1,4.73-21.36Z"/><circle class="cls-50" cx="301.53" cy="681.45" r="39"/><path d="M301.53,681.45"/><path class="cls-54" d="M365.53,681.92a64,64,0,0,1-128,0"/><path class="cls-55" d="M373,678.42a71.5,71.5,0,0,0-143,0"/><line class="cls-56" x1="130.52" y1="181.22" x2="469.48" y2="181.22"/><line class="cls-56" x1="130.52" y1="821.86" x2="469.48" y2="821.86"/></svg>