<?xml version="1.0" encoding="UTF-8"?><svg id="a" xmlns="http://www.w3.org/2000/svg" xmlns:xlink="http://www.w3.org/1999/xlink" viewBox="0 0 600 1100"><defs><style>.h{fill:url(#b);}.i{stroke-dasharray:0 0 11.51 0;}.i,.j,.k,.l,.m,.n,.o,.p,.q,.r,.s,.t,.u,.v,.w,.x,.y,.a`,.aa,.ab{stroke-miterlimit:10;}.i,.j,.n,.u,.v,.w,.x,.y{stroke-width:2px;}.i,.k,.l,.n,.o,.p,.u,.v,.w,.x,.y,.ab{fill:none;}.i,.m,.o,.q,.r,.s,.t,.u,.a`,.aa,.ab{stroke:#010101;}.ac{letter-spacing:-.04em;}.ad{letter-spacing:-.02em;}.ae{font-size:50px;}.ae,.af,.j,.m{fill:#e9e8e8;}.ae,.ag,.ah{font-family:Helvetica-Bold, Helvetica;}.ai{font-size:5.54px;}.ai,.aj,.ah,.q,.ak,.al{fill:#010101;}.ai,.am,.ak,.al{font-family:Helvetica-Light, Helvetica;}.an,.ag,.ao,.am{fill:#fff;}.ap,.r{fill:#ffca39;}.aq,.aa{fill:#989798;}.ar,.t,.a`{fill:#b83130;}.as,.s{fill:#db7a27;}.at{fill:#33a0a8;}.au{fill:#4b4d56;}.ag,.ah{font-size:25px;}.j{stroke:#e9e8e8;}.k{stroke-dasharray:0 4;}.k,.l,.p{stroke:#fff;}.k,.m,.ab{stroke-width:.5px;}.l{stroke-linecap:round;}.ao{font-family:Helvetica, Helvetica;}.ao,.al{font-size:10.39px;}.n{stroke-dasharray:0 0 11.58 0;}.n,.x{stroke:#33a0a8;}.o,.p,.a`,.aa{stroke-width:.75px;}.am,.ak{font-size:8.32px;}.v{stroke:#b83130;}.w{stroke:#989798;}.y{stroke:#4c4d56;}</style><linearGradient id="b" x1="22.02" y1="302.79" x2="570.2" y2="790.3" gradientTransform="matrix(1, 0, 0, 1, 0, 0)" gradientUnits="userSpaceOnUse"><stop offset="0" stop-color="#9f3030"/><stop offset=".17" stop-color="#a1332f"/><stop offset=".31" stop-color="#aa3d2d"/><stop offset=".44" stop-color="#b84e2b"/><stop offset=".55" stop-color="#cc6528"/><stop offset=".65" stop-color="#d56f26"/><stop offset=".77" stop-color="#e58225"/><stop offset=".82" stop-color="#e78a27"/><stop offset=".89" stop-color="#efa02d"/><stop offset=".99" stop-color="#fcc437"/><stop offset="1" stop-color="#ffca39"/></linearGradient></defs><rect class="h" width="600" height="1100"/><rect class="au" x="30.48" y="572.64" width="539.03" height="458.78" rx="58.53" ry="58.53"/><g><g><circle class="w" cx="415.57" cy="918.47" r="64.83"/><circle class="w" cx="415.57" cy="977.4" r="5.89"/><circle class="w" cx="415.57" cy="965.61" r="17.68"/><circle class="w" cx="415.57" cy="953.83" r="29.47"/><circle class="w" cx="415.57" cy="942.04" r="41.25"/><circle class="w" cx="415.57" cy="930.25" r="53.04"/><circle class="v" cx="416.39" cy="716.42" r="74.25"/><circle class="v" cx="416.39" cy="782.42" r="8.25"/><circle class="v" cx="416.39" cy="765.92" r="24.75"/><circle class="v" cx="416.39" cy="749.42" r="41.25"/><circle class="v" cx="416.39" cy="732.92" r="57.75"/><line class="p" x1="416.27" y1="774.05" x2="518.34" y2="774.05"/><line class="p" x1="416.39" y1="971.51" x2="518.46" y2="971.51"/><line class="p" x1="416.39" y1="947.46" x2="518.46" y2="947.46"/><line class="p" x1="416.39" y1="924.12" x2="518.46" y2="924.12"/><line class="p" x1="416.39" y1="900.32" x2="518.46" y2="900.32"/><line class="p" x1="416.39" y1="876.74" x2="518.46" y2="876.74"/><line class="p" x1="416.39" y1="853.17" x2="518.46" y2="853.17"/><line class="p" x1="416.39" y1="740.58" x2="518.46" y2="740.58"/><line class="p" x1="416.39" y1="707.58" x2="518.46" y2="707.58"/><line class="p" x1="416.39" y1="674.58" x2="518.46" y2="674.58"/><line class="p" x1="416.39" y1="641.81" x2="518.46" y2="641.81"/><text class="am" transform="translate(521.74 854.84)"><tspan x="0" y="0">350k</tspan></text><text class="am" transform="translate(521.74 643.48)"><tspan x="0" y="0">2,400k</tspan></text><text class="am" transform="translate(521.74 676.6)"><tspan x="0" y="0">1,850k</tspan></text><text class="am" transform="translate(521.74 709.72)"><tspan x="0" y="0">1,300k</tspan></text><text class="am" transform="translate(521.74 742.84)"><tspan x="0" y="0">750k</tspan></text><text class="am" transform="translate(521.74 775.96)"><tspan x="0" y="0">200k</tspan></text><text class="am" transform="translate(521.74 878.7)"><tspan x="0" y="0">290k</tspan></text><text class="am" transform="translate(521.74 902.55)"><tspan x="0" y="0">230k</tspan></text><text class="am" transform="translate(521.74 926.41)"><tspan x="0" y="0">170k</tspan></text><text class="am" transform="translate(521.74 950.27)"><tspan x="0" y="0">110k</tspan></text><text class="am" transform="translate(521.74 974.12)"><tspan x="0" y="0">20k</tspan></text></g><g><g><circle class="a`" cx="161.08" cy="926.21" r="5.82"/><path class="at" d="M70.66,926.24s2.23-2.37,3.82-.78c1.59,1.59,2.58,.78,2.58,.78,0,0-2.33,2.3-3.92,.71-1.59-1.59-2.48-.71-2.48-.71Z"/><rect class="aq" x="161.85" y="925.38" width="94.33" height="1.65" rx=".83" ry=".83"/><line class="y" x1="178.37" y1="927.03" x2="178.37" y2="925.38"/><line class="y" x1="204.27" y1="927.03" x2="204.27" y2="925.38"/><line class="y" x1="230.17" y1="925.38" x2="230.17" y2="927.03"/><rect class="ar" x="80.48" y="925.38" width="79.67" height="1.65" rx=".83" ry=".83"/><line class="y" x1="82.2" y1="925.38" x2="82.2" y2="927.03"/><line class="y" x1="108.1" y1="925.38" x2="108.1" y2="927.03"/><line class="y" x1="133.99" y1="927.03" x2="133.99" y2="925.38"/><text class="am" transform="translate(176.06 922.66)"><tspan x="0" y="0">5</tspan></text><text class="am" transform="translate(199.65 922.66)"><tspan x="0" y="0">10</tspan></text><text class="am" transform="translate(225.54 922.66)"><tspan x="0" y="0">15</tspan></text><text class="am" transform="translate(77.58 922.66)"><tspan x="0" y="0">15</tspan></text><text class="am" transform="translate(103.47 922.66)"><tspan x="0" y="0">10</tspan></text><text class="am" transform="translate(131.68 922.66)"><tspan x="0" y="0">5</tspan></text><text class="am" transform="translate(108.1 958.56)"><tspan x="0" y="0">duration </tspan><tspan x="0" y="9.98">of fire x10 </tspan><tspan x="0" y="19.96">(days)</tspan></text><text class="am" transform="translate(62.06 958.56)"><tspan x="0" y="0"># of days </tspan><tspan x="0" y="9.98">rained </tspan><tspan x="0" y="19.96">during </tspan><tspan x="0" y="29.94">fir</tspan><tspan class="ad" x="6.93" y="29.94">e</tspan></text><polyline class="l" points="160.16 944.21 120.32 944.21 80.49 944.21"/><polyline class="l" points="256.18 934.81 256.18 944.21 161.85 944.21"/><polyline class="l" points="70.66 934.81 70.66 944.21 77.53 944.21"/><line class="l" x1="77.53" y1="944.21" x2="77.53" y2="934.81"/><line class="l" x1="73.86" y1="944.21" x2="73.86" y2="949.86"/><line class="l" x1="80.48" y1="934.81" x2="80.48" y2="944.21"/><text class="am" transform="translate(186.87 958.83)"><tspan x="0" y="0"># of buildings </tspan><tspan x="0" y="9.98">at risk x10,000</tspan></text><line class="l" x1="209.02" y1="944.21" x2="209.02" y2="949.86"/><line class="l" x1="160.16" y1="934.81" x2="160.16" y2="944.21"/><line class="l" x1="161.85" y1="934.81" x2="161.85" y2="944.21"/><text class="am" transform="translate(140.23 896.66)"><tspan x="0" y="0">Fill: Cause</tspan><tspan x="-22.41" y="9.98">Size: Hectares Burned</tspan></text><line class="l" x1="160.8" y1="910.08" x2="160.8" y2="915.73"/><line class="l" x1="109.18" y1="949.86" x2="109.18" y2="944.21"/></g><g><g id="c"><circle class="a`" cx="160.32" cy="797.26" r="3.98"/><rect class="ar" x="110.7" y="796.47" width="48.93" height="1.57" rx=".79" ry=".79"/><rect class="aq" x="161.1" y="796.47" width="48.06" height="1.57" rx=".79" ry=".79"/></g><g id="d"><circle class="a`" cx="160.32" cy="830.82" r="3.98"/><rect class="ar" x="120.31" y="830.03" width="39.32" height="1.57" rx=".79" ry=".79"/><rect class="aq" x="161.1" y="830.03" width="15.73" height="1.57" rx=".79" ry=".79"/></g><g id="e"><path class="aq" d="M161.1,823.21h.09c.43,0,.79-.35,.79-.79h0c0-.43-.35-.79-.79-.79h-.09"/><circle class="a`" cx="160.32" cy="822.43" r="3.57"/><rect class="ar" x="153.52" y="821.64" width="6.12" height="1.57" rx=".79" ry=".79"/></g><g id="f"><circle class="a`" cx="160.32" cy="814.04" r="3.51"/><rect class="ar" x="114.2" y="813.25" width="45.44" height="1.57" rx=".79" ry=".79"/><rect class="aq" x="161.1" y="813.25" width="23.59" height="1.57" rx=".79" ry=".79"/></g><g id="g"><circle class="a`" cx="160.32" cy="805.65" r="3.51"/><rect class="ar" x="90.6" y="804.86" width="69.03" height="1.57" rx=".79" ry=".79"/><rect class="aq" x="161.1" y="804.86" width="21.85" height="1.57" rx=".79" ry=".79"/></g></g><path class="an" d="M146.7,639.91l1.91,8.29,.42,2.31,.42-2.26,1.64-8.34h3.19l1.72,8.29,.44,2.31,.45-2.22,1.93-8.38h3.08l-4.07,14.48h-2.9l-1.75-8.47-.51-2.8-.51,2.8-1.75,8.47h-2.81l-4.1-14.48h3.21Z"/><path class="an" d="M166.75,639.91h3.42l5.12,14.48h-3.28l-.96-2.98h-5.33l-.98,2.98h-3.16l5.17-14.48Zm-.2,9.01h3.71l-1.83-5.7-1.88,5.7Z"/><line class="k" x1="160.03" y1="660.16" x2="160.03" y2="789.47"/><circle class="a`" cx="160.03" cy="675.38" r="7.01"/><circle class="aa" cx="159.39" cy="695.71" r="11.89"/><line class="l" x1="179.08" y1="646.04" x2="200.74" y2="646.04"/><text class="ao" transform="translate(204.03 649.97)"><tspan x="0" y="0">State</tspan></text><line class="l" x1="170.96" y1="674.91" x2="192.62" y2="674.91"/><text class="am" transform="translate(195.01 677.27)"><tspan x="0" y="0">Total Hectares Burned by Lightning Fires</tspan></text><text class="am" transform="translate(228.17 763.95)"><tspan x="0" y="0">Total Number</tspan><tspan x="0" y="9.98">of Lightning Fires</tspan></text><line class="l" x1="173.89" y1="695.89" x2="195.55" y2="695.89"/><text class="am" transform="translate(198.17 698.02)"><tspan x="0" y="0">Total Number of Properties</tspan><tspan x="0" y="9.98">Threatened by Lightning Fires</tspan></text><line class="l" x1="94.04" y1="764.19" x2="223.45" y2="764.19"/><line class="l" x1="94.04" y1="758.1" x2="94.04" y2="770.28"/><line class="l" x1="119.91" y1="758.1" x2="119.91" y2="770.28"/><line class="l" x1="145.79" y1="758.55" x2="145.79" y2="770.73"/><line class="l" x1="171.66" y1="759.45" x2="171.66" y2="771.63"/><line class="l" x1="197.53" y1="759.45" x2="197.53" y2="771.63"/><line class="l" x1="223.41" y1="759.45" x2="223.41" y2="771.63"/><polyline class="l" points="210.36 789.66 219.13 789.66 219.44 834.8 210.67 834.8"/><text class="am" transform="translate(230.45 814.04)"><tspan x="0" y="0">Top Five Fires</tspan><tspan x="0" y="9.98">Statewide</tspan></text><line class="l" x1="219.3" y1="814.04" x2="227.13" y2="814.04"/></g><text class="am" transform="translate(53.29 625.98)"><tspan x="0" y="0">AZ</tspan><tspan x="0" y="9.98">CA</tspan><tspan x="0" y="19.96">CO</tspan><tspan x="0" y="29.94">ID</tspan><tspan x="0" y="39.91">MT</tspan><tspan x="0" y="49.89">NM</tspan><tspan x="0" y="59.87">NV</tspan><tspan x="0" y="69.85">OR</tspan><tspan x="0" y="79.83">UT</tspan><tspan x="0" y="89.81">WA</tspan><tspan x="0" y="99.78">WY</tspan></text><text class="am" transform="translate(67.48 625.98)"><tspan x="0" y="0">- Arizona</tspan><tspan x="0" y="9.98">- California</tspan><tspan x="0" y="19.96">- Colorado</tspan><tspan x="0" y="29.94">- Idaho</tspan><tspan x="0" y="39.91">- Montana</tspan><tspan x="0" y="49.89">- New Mexico</tspan><tspan x="0" y="59.87">- Nevada</tspan><tspan x="0" y="69.85">- Oregon</tspan><tspan x="0" y="79.83">- Utah</tspan><tspan x="0" y="89.81">- Washington</tspan><tspan x="0" y="99.78">- Wyoming</tspan></text></g><g><rect class="af" x="30.48" y="180.77" width="539.03" height="273.62" rx="58.53" ry="58.53"/><text class="al" transform="translate(385.57 319.96)"><tspan x="0" y="0">% of Fires By Cause</tspan></text><circle class="q" cx="322.77" cy="309.41" r="29.51"/><path class="r" d="M322.77,309.41l-9.8-24.26c3.24-1.31,6.3-1.91,9.8-1.91v26.16Z"/><path class="s" d="M322.77,309.41l-23.71-11.06c2.88-6.18,7.59-10.65,13.91-13.2l9.8,24.26Z"/><path class="t" d="M322.77,309.41v-26.16c14.45,0,26.16,11.71,26.16,26.16s-11.71,26.16-26.16,26.16-26.16-11.71-26.16-26.16c0-4.12,.71-7.32,2.45-11.06l23.71,11.06Z"/><circle class="aj" cx="322.77" cy="309.41" r="14.23"/><g><path class="u" d="M355.9,309.66c0,2.04-.18,4.04-.54,5.97"/><path class="i" d="M355.36,315.63c-2.81,15.44-16.33,27.15-32.59,27.15s-29.78-11.71-32.59-27.15"/><path class="u" d="M290.18,315.63c-.35-1.94-.54-3.93-.54-5.97"/></g><g><path class="u" d="M355.9,308.62c0-2.04-.18-4.04-.54-5.97"/><path class="i" d="M355.36,302.65c-2.81-15.44-16.33-27.15-32.59-27.15s-29.78,11.71-32.59,27.15"/><path class="u" d="M290.18,302.65c-.35,1.94-.54,3.93-.54,5.97"/></g><g><path class="x" d="M359.78,307.85c0-2.04-.16-4.03-.48-5.98"/><path class="n" d="M359.3,301.87c-2.86-17.6-18.12-31.03-36.53-31.03s-33.67,13.43-36.53,31.03"/><path class="x" d="M286.24,301.87c-.32,1.95-.48,3.94-.48,5.98"/></g><g><path class="x" d="M359.78,309.92c0,2.04-.16,4.03-.48,5.98"/><path class="n" d="M359.3,315.9c-2.86,17.6-18.12,31.03-36.53,31.03s-33.67-13.43-36.53-31.03"/><path class="x" d="M286.24,315.9c-.32-1.95-.48-3.94-.48-5.98"/></g><line class="ab" x1="340.87" y1="316.75" x2="381.24" y2="316.75"/><line class="o" x1="348.04" y1="280.55" x2="377.89" y2="250.71"/><text class="ak" transform="translate(385.44 248.34)"><tspan x="0" y="0">Monthly avg percipitation greater</tspan><tspan x="-5.33" y="9.98">than mean perciptation (1900-2014)</tspan></text><text class="ak" transform="translate(394.63 281.41)"><tspan x="0" y="0">Monthly avg temperature greater</tspan><tspan x="-6.25" y="9.98">than mean temperature (1900-2014)</tspan></text><text class="ak" transform="translate(389.78 351.3)"><tspan x="0" y="0">Monthly avg percipitation less than</tspan><tspan x="7.16" y="9.98">mean perciptation (1900-2014)</tspan></text><text class="ak" transform="translate(375.68 380.58)"><tspan x="0" y="0">Monthly avg temperature less</tspan><tspan x="-12.26" y="9.98">than mean temperature (1900-2014)</tspan></text><line class="ab" x1="350.57" y1="290.97" x2="388.78" y2="280.87"/><line class="o" x1="354.67" y1="328.56" x2="387.2" y2="347.82"/><line class="o" x1="342.67" y1="336.14" x2="371.1" y2="380.35"/><circle class="m" cx="178.4" cy="295.29" r="28.99"/><circle class="m" cx="178.4" cy="298.65" r="25.62"/><circle class="m" cx="178.4" cy="302.28" r="22"/><circle class="m" cx="178.4" cy="305.9" r="18.38"/><circle class="m" cx="178.4" cy="309.78" r="14.49"/><circle class="m" cx="178.4" cy="313.41" r="10.87"/><text class="ai" transform="translate(173.78 294.35)"><tspan x="0" y="0">100</tspan></text><text class="ai" transform="translate(175.32 301.62)"><tspan x="0" y="0">50</tspan></text><text class="ai" transform="translate(173.78 286.24)"><tspan x="0" y="0">150</tspan></text><text class="ai" transform="translate(173.78 279.09)"><tspan x="0" y="0">200</tspan></text><text class="ai" transform="translate(173.78 271.84)"><tspan x="0" y="0">250</tspan></text><text class="ai" transform="translate(173.78 265.18)"><tspan x="0" y="0">300</tspan></text><text class="al" transform="translate(129.99 246.82)"><tspan x="0" y="0">Total Number of Fires</tspan></text><circle class="aj" cx="178.4" cy="319.42" r="4.85"/><line class="ab" x1="178.49" y1="314.75" x2="218.87" y2="314.75"/><line class="ab" x1="137.75" y1="319.49" x2="178.12" y2="319.49"/><text class="ak" transform="translate(221.04 316.22)"><tspan x="0" y="0">&lt;15 Fires</tspan></text><g><circle class="ar" cx="133.3" cy="365.19" r="10.68"/><text class="ak" transform="translate(115.97 385.78)"><tspan x="0" y="0">Lightning</tspan></text><text class="ak" transform="translate(105.34 402.49)"><tspan x="0" y="0">*Includes Natural, Unknown, and Other</tspan></text><g><circle class="as" cx="178.26" cy="365.19" r="10.68"/><text class="ak" transform="translate(164.86 385.78)"><tspan x="0" y="0">Human</tspan></text></g><g><circle class="ap" cx="222.6" cy="365.19" r="10.68"/><text class="ak" transform="translate(210.59 385.78)"><tspan x="0" y="0">Other*</tspan></text></g></g><text class="ak" transform="translate(77.48 317.07)"><tspan x="0" y="0">Most common fire</tspan><tspan x="0" y="9.98">cause that month</tspan></text></g><g><text class="ae" transform="translate(148.61 88)"><tspan x="0" y="0">How to Read</tspan></text><text class="ah" transform="translate(264.34 221.02)"><tspan class="ac" x="0" y="0">W</tspan><tspan x="22.68" y="0">all 1</tspan></text><text class="ag" transform="translate(264.34 620.46)"><tspan class="ac" x="0" y="0">W</tspan><tspan x="22.68" y="0">all 2</tspan></text><line class="j" x1="130.52" y1="124.41" x2="469.48" y2="124.41"/><line class="j" x1="130.52" y1="515.7" x2="469.48" y2="515.7"/></g></svg>