<?xml version="1.0" encoding="UTF-8"?>
<svg id="Layer_1" data-name="Layer 1" xmlns="http://www.w3.org/2000/svg" xmlns:xlink="http://www.w3.org/1999/xlink" viewBox="0 0 600 1100">
  <defs>
    <style>
      .cls-1 {
        stroke-dasharray: 0 0 11.51 0;
      }

      .cls-1, .cls-2, .cls-3, .cls-4, .cls-5, .cls-6, .cls-7, .cls-8, .cls-9, .cls-10, .cls-11, .cls-12, .cls-13, .cls-14, .cls-15, .cls-16, .cls-17, .cls-18, .cls-19, .cls-20 {
        stroke-miterlimit: 10;
      }

      .cls-1, .cls-2, .cls-6, .cls-13, .cls-14, .cls-15, .cls-16, .cls-17 {
        stroke-width: 2px;
      }

      .cls-1, .cls-3, .cls-4, .cls-6, .cls-7, .cls-8, .cls-13, .cls-14, .cls-15, .cls-16, .cls-17, .cls-20 {
        fill: none;
      }

      .cls-1, .cls-5, .cls-7, .cls-9, .cls-10, .cls-11, .cls-12, .cls-13, .cls-18, .cls-19, .cls-20 {
        stroke: #010101;
      }

      .cls-21 {
        letter-spacing: -.04em;
      }

      .cls-22 {
        letter-spacing: -.02em;
      }

      .cls-23 {
        font-size: 50px;
      }

      .cls-23, .cls-24, .cls-2, .cls-5 {
        fill: #e9e8e8;
      }

      .cls-23, .cls-25, .cls-26 {
        font-family: Helvetica-Bold, Helvetica;
      }

      .cls-27 {
        font-size: 5.54px;
      }

      .cls-27, .cls-28, .cls-26, .cls-9, .cls-29, .cls-30 {
        fill: #010101;
      }

      .cls-27, .cls-31, .cls-29, .cls-30 {
        font-family: Helvetica-Light, Helvetica;
      }

      .cls-32, .cls-25, .cls-33, .cls-31 {
        fill: #fff;
      }

      .cls-34, .cls-10 {
        fill: #ffca39;
      }

      .cls-35, .cls-19 {
        fill: #989798;
      }

      .cls-36, .cls-12, .cls-18 {
        fill: #b83130;
      }

      .cls-37, .cls-11 {
        fill: #db7a27;
      }

      .cls-38 {
        fill: #33a0a8;
      }

      .cls-39 {
        fill: #4b4d56;
      }

      .cls-25, .cls-26 {
        font-size: 25px;
      }

      .cls-2 {
        stroke: #e9e8e8;
      }

      .cls-40 {
        fill: url(#linear-gradient);
      }

      .cls-3 {
        stroke-dasharray: 0 4;
      }

      .cls-3, .cls-4, .cls-8 {
        stroke: #fff;
      }

      .cls-3, .cls-5, .cls-20 {
        stroke-width: .5px;
      }

      .cls-4 {
        stroke-linecap: round;
      }

      .cls-33 {
        font-family: Helvetica, Helvetica;
      }

      .cls-33, .cls-30 {
        font-size: 10.39px;
      }

      .cls-6 {
        stroke-dasharray: 0 0 11.58 0;
      }

      .cls-6, .cls-16 {
        stroke: #33a0a8;
      }

      .cls-7, .cls-8, .cls-18, .cls-19 {
        stroke-width: .75px;
      }

      .cls-31, .cls-29 {
        font-size: 8.32px;
      }

      .cls-14 {
        stroke: #b83130;
      }

      .cls-15 {
        stroke: #989798;
      }

      .cls-17 {
        stroke: #4c4d56;
      }
    </style>
    <linearGradient id="linear-gradient" x1="22.02" y1="302.79" x2="570.2" y2="790.3" gradientTransform="matrix(1, 0, 0, 1, 0, 0)" gradientUnits="userSpaceOnUse">
      <stop offset="0" stop-color="#9f3030"/>
      <stop offset=".17" stop-color="#a1332f"/>
      <stop offset=".31" stop-color="#aa3d2d"/>
      <stop offset=".44" stop-color="#b84e2b"/>
      <stop offset=".55" stop-color="#cc6528"/>
      <stop offset=".65" stop-color="#d56f26"/>
      <stop offset=".77" stop-color="#e58225"/>
      <stop offset=".82" stop-color="#e78a27"/>
      <stop offset=".89" stop-color="#efa02d"/>
      <stop offset=".99" stop-color="#fcc437"/>
      <stop offset="1" stop-color="#ffca39"/>
    </linearGradient>
  </defs>
  <rect class="cls-40" width="600" height="1100"/>
  <rect class="cls-39" x="30.48" y="572.64" width="539.03" height="458.78" rx="58.53" ry="58.53"/>
  <g>
    <g>
      <circle class="cls-15" cx="415.57" cy="918.47" r="64.83"/>
      <circle class="cls-15" cx="415.57" cy="977.4" r="5.89"/>
      <circle class="cls-15" cx="415.57" cy="965.61" r="17.68"/>
      <circle class="cls-15" cx="415.57" cy="953.83" r="29.47"/>
      <circle class="cls-15" cx="415.57" cy="942.04" r="41.25"/>
      <circle class="cls-15" cx="415.57" cy="930.25" r="53.04"/>
      <circle class="cls-14" cx="416.39" cy="716.42" r="74.25"/>
      <circle class="cls-14" cx="416.39" cy="782.42" r="8.25"/>
      <circle class="cls-14" cx="416.39" cy="765.92" r="24.75"/>
      <circle class="cls-14" cx="416.39" cy="749.42" r="41.25"/>
      <circle class="cls-14" cx="416.39" cy="732.92" r="57.75"/>
      <line class="cls-8" x1="416.27" y1="774.05" x2="518.34" y2="774.05"/>
      <line class="cls-8" x1="416.39" y1="971.51" x2="518.46" y2="971.51"/>
      <line class="cls-8" x1="416.39" y1="947.46" x2="518.46" y2="947.46"/>
      <line class="cls-8" x1="416.39" y1="924.12" x2="518.46" y2="924.12"/>
      <line class="cls-8" x1="416.39" y1="900.32" x2="518.46" y2="900.32"/>
      <line class="cls-8" x1="416.39" y1="876.74" x2="518.46" y2="876.74"/>
      <line class="cls-8" x1="416.39" y1="853.17" x2="518.46" y2="853.17"/>
      <line class="cls-8" x1="416.39" y1="740.58" x2="518.46" y2="740.58"/>
      <line class="cls-8" x1="416.39" y1="707.58" x2="518.46" y2="707.58"/>
      <line class="cls-8" x1="416.39" y1="674.58" x2="518.46" y2="674.58"/>
      <line class="cls-8" x1="416.39" y1="641.81" x2="518.46" y2="641.81"/>
      <text class="cls-31" transform="translate(521.74 854.84)"><tspan x="0" y="0">350k</tspan></text>
      <text class="cls-31" transform="translate(521.74 643.48)"><tspan x="0" y="0">2,400k</tspan></text>
      <text class="cls-31" transform="translate(521.74 676.6)"><tspan x="0" y="0">1,850k</tspan></text>
      <text class="cls-31" transform="translate(521.74 709.72)"><tspan x="0" y="0">1,300k</tspan></text>
      <text class="cls-31" transform="translate(521.74 742.84)"><tspan x="0" y="0">750k</tspan></text>
      <text class="cls-31" transform="translate(521.74 775.96)"><tspan x="0" y="0">200k</tspan></text>
      <text class="cls-31" transform="translate(521.74 878.7)"><tspan x="0" y="0">290k</tspan></text>
      <text class="cls-31" transform="translate(521.74 902.55)"><tspan x="0" y="0">230k</tspan></text>
      <text class="cls-31" transform="translate(521.74 926.41)"><tspan x="0" y="0">170k</tspan></text>
      <text class="cls-31" transform="translate(521.74 950.27)"><tspan x="0" y="0">110k</tspan></text>
      <text class="cls-31" transform="translate(521.74 974.12)"><tspan x="0" y="0">20k</tspan></text>
    </g>
    <g>
      <g>
        <circle class="cls-18" cx="161.08" cy="926.21" r="5.82"/>
        <path class="cls-38" d="M70.66,926.24s2.23-2.37,3.82-.78c1.59,1.59,2.58,.78,2.58,.78,0,0-2.33,2.3-3.92,.71-1.59-1.59-2.48-.71-2.48-.71Z"/>
        <rect class="cls-35" x="161.85" y="925.38" width="94.33" height="1.65" rx=".83" ry=".83"/>
        <line class="cls-17" x1="178.37" y1="927.03" x2="178.37" y2="925.38"/>
        <line class="cls-17" x1="204.27" y1="927.03" x2="204.27" y2="925.38"/>
        <line class="cls-17" x1="230.17" y1="925.38" x2="230.17" y2="927.03"/>
        <rect class="cls-36" x="80.48" y="925.38" width="79.67" height="1.65" rx=".83" ry=".83"/>
        <line class="cls-17" x1="82.2" y1="925.38" x2="82.2" y2="927.03"/>
        <line class="cls-17" x1="108.1" y1="925.38" x2="108.1" y2="927.03"/>
        <line class="cls-17" x1="133.99" y1="927.03" x2="133.99" y2="925.38"/>
        <text class="cls-31" transform="translate(176.06 922.66)"><tspan x="0" y="0">5</tspan></text>
        <text class="cls-31" transform="translate(199.65 922.66)"><tspan x="0" y="0">10</tspan></text>
        <text class="cls-31" transform="translate(225.54 922.66)"><tspan x="0" y="0">15</tspan></text>
        <text class="cls-31" transform="translate(77.58 922.66)"><tspan x="0" y="0">15</tspan></text>
        <text class="cls-31" transform="translate(103.47 922.66)"><tspan x="0" y="0">10</tspan></text>
        <text class="cls-31" transform="translate(131.68 922.66)"><tspan x="0" y="0">5</tspan></text>
        <text class="cls-31" transform="translate(108.1 958.56)"><tspan x="0" y="0">duration </tspan><tspan x="0" y="9.98">of fire x10 </tspan><tspan x="0" y="19.96">(days)</tspan></text>
        <text class="cls-31" transform="translate(62.06 958.56)"><tspan x="0" y="0"># of days </tspan><tspan x="0" y="9.98">rained </tspan><tspan x="0" y="19.96">during </tspan><tspan x="0" y="29.94">fir</tspan><tspan class="cls-22" x="6.93" y="29.94">e</tspan></text>
        <polyline class="cls-4" points="160.16 944.21 120.32 944.21 80.49 944.21"/>
        <polyline class="cls-4" points="256.18 934.81 256.18 944.21 161.85 944.21"/>
        <polyline class="cls-4" points="70.66 934.81 70.66 944.21 77.53 944.21"/>
        <line class="cls-4" x1="77.53" y1="944.21" x2="77.53" y2="934.81"/>
        <line class="cls-4" x1="73.86" y1="944.21" x2="73.86" y2="949.86"/>
        <line class="cls-4" x1="80.48" y1="934.81" x2="80.48" y2="944.21"/>
        <text class="cls-31" transform="translate(186.87 958.83)"><tspan x="0" y="0"># of buildings </tspan><tspan x="0" y="9.98">at risk x10,000</tspan></text>
        <line class="cls-4" x1="209.02" y1="944.21" x2="209.02" y2="949.86"/>
        <line class="cls-4" x1="160.16" y1="934.81" x2="160.16" y2="944.21"/>
        <line class="cls-4" x1="161.85" y1="934.81" x2="161.85" y2="944.21"/>
        <text class="cls-31" transform="translate(140.23 896.66)"><tspan x="0" y="0">Fill: Cause</tspan><tspan x="-22.41" y="9.98">Size: Hectares Burned</tspan></text>
        <line class="cls-4" x1="160.8" y1="910.08" x2="160.8" y2="915.73"/>
        <line class="cls-4" x1="109.18" y1="949.86" x2="109.18" y2="944.21"/>
      </g>
      <g>
        <g id="ID_murphy_complex" data-name="ID murphy complex">
          <circle class="cls-18" cx="160.32" cy="797.26" r="3.98"/>
          <rect class="cls-36" x="110.7" y="796.47" width="48.93" height="1.57" rx=".79" ry=".79"/>
          <rect class="cls-35" x="161.1" y="796.47" width="48.06" height="1.57" rx=".79" ry=".79"/>
        </g>
        <g id="ID_mustang_complex" data-name="ID mustang complex">
          <circle class="cls-18" cx="160.32" cy="830.82" r="3.98"/>
          <rect class="cls-36" x="120.31" y="830.03" width="39.32" height="1.57" rx=".79" ry=".79"/>
          <rect class="cls-35" x="161.1" y="830.03" width="15.73" height="1.57" rx=".79" ry=".79"/>
        </g>
        <g id="ID_long_butte" data-name="ID long butte">
          <path class="cls-35" d="M161.1,823.21h.09c.43,0,.79-.35,.79-.79h0c0-.43-.35-.79-.79-.79h-.09"/>
          <circle class="cls-18" cx="160.32" cy="822.43" r="3.57"/>
          <rect class="cls-36" x="153.52" y="821.64" width="6.12" height="1.57" rx=".79" ry=".79"/>
        </g>
        <g id="ID_cascade_complex" data-name="ID cascade complex">
          <circle class="cls-18" cx="160.32" cy="814.04" r="3.51"/>
          <rect class="cls-36" x="114.2" y="813.25" width="45.44" height="1.57" rx=".79" ry=".79"/>
          <rect class="cls-35" x="161.1" y="813.25" width="23.59" height="1.57" rx=".79" ry=".79"/>
        </g>
        <g id="ID_east_zone_complex" data-name="ID east zone complex">
          <circle class="cls-18" cx="160.32" cy="805.65" r="3.51"/>
          <rect class="cls-36" x="90.6" y="804.86" width="69.03" height="1.57" rx=".79" ry=".79"/>
          <rect class="cls-35" x="161.1" y="804.86" width="21.85" height="1.57" rx=".79" ry=".79"/>
        </g>
      </g>
      <path class="cls-32" d="M146.7,639.91l1.91,8.29,.42,2.31,.42-2.26,1.64-8.34h3.19l1.72,8.29,.44,2.31,.45-2.22,1.93-8.38h3.08l-4.07,14.48h-2.9l-1.75-8.47-.51-2.8-.51,2.8-1.75,8.47h-2.81l-4.1-14.48h3.21Z"/>
      <path class="cls-32" d="M166.75,639.91h3.42l5.12,14.48h-3.28l-.96-2.98h-5.33l-.98,2.98h-3.16l5.17-14.48Zm-.2,9.01h3.71l-1.83-5.7-1.88,5.7Z"/>
      <line class="cls-3" x1="160.03" y1="660.16" x2="160.03" y2="789.47"/>
      <circle class="cls-18" cx="160.03" cy="675.38" r="7.01"/>
      <circle class="cls-19" cx="159.39" cy="695.71" r="11.89"/>
      <line class="cls-4" x1="179.08" y1="646.04" x2="200.74" y2="646.04"/>
      <text class="cls-33" transform="translate(204.03 649.97)"><tspan x="0" y="0">State</tspan></text>
      <line class="cls-4" x1="170.96" y1="674.91" x2="192.62" y2="674.91"/>
      <text class="cls-31" transform="translate(195.01 677.27)"><tspan x="0" y="0">Total Hectares Burned by Lightning Fires</tspan></text>
      <text class="cls-31" transform="translate(228.17 763.95)"><tspan x="0" y="0">Total Number</tspan><tspan x="0" y="9.98">of Lightning Fires</tspan></text>
      <line class="cls-4" x1="173.89" y1="695.89" x2="195.55" y2="695.89"/>
      <text class="cls-31" transform="translate(198.17 698.02)"><tspan x="0" y="0">Total Number of Properties</tspan><tspan x="0" y="9.98">Threatened by Lightning Fires</tspan></text>
      <line class="cls-4" x1="94.04" y1="764.19" x2="223.45" y2="764.19"/>
      <line class="cls-4" x1="94.04" y1="758.1" x2="94.04" y2="770.28"/>
      <line class="cls-4" x1="119.91" y1="758.1" x2="119.91" y2="770.28"/>
      <line class="cls-4" x1="145.79" y1="758.55" x2="145.79" y2="770.73"/>
      <line class="cls-4" x1="171.66" y1="759.45" x2="171.66" y2="771.63"/>
      <line class="cls-4" x1="197.53" y1="759.45" x2="197.53" y2="771.63"/>
      <line class="cls-4" x1="223.41" y1="759.45" x2="223.41" y2="771.63"/>
      <polyline class="cls-4" points="210.36 789.66 219.13 789.66 219.44 834.8 210.67 834.8"/>
      <text class="cls-31" transform="translate(230.45 814.04)"><tspan x="0" y="0">Top Five Fires</tspan><tspan x="0" y="9.98">Statewide</tspan></text>
      <line class="cls-4" x1="219.3" y1="814.04" x2="227.13" y2="814.04"/>
    </g>
    <text class="cls-31" transform="translate(53.29 625.98)"><tspan x="0" y="0">AZ</tspan><tspan x="0" y="9.98">CA</tspan><tspan x="0" y="19.96">CO</tspan><tspan x="0" y="29.94">ID</tspan><tspan x="0" y="39.91">MT</tspan><tspan x="0" y="49.89">NM</tspan><tspan x="0" y="59.87">NV</tspan><tspan x="0" y="69.85">OR</tspan><tspan x="0" y="79.83">UT</tspan><tspan x="0" y="89.81">WA</tspan><tspan x="0" y="99.78">WY</tspan></text>
    <text class="cls-31" transform="translate(67.48 625.98)"><tspan x="0" y="0">- Arizona</tspan><tspan x="0" y="9.98">- California</tspan><tspan x="0" y="19.96">- Colorado</tspan><tspan x="0" y="29.94">- Idaho</tspan><tspan x="0" y="39.91">- Montana</tspan><tspan x="0" y="49.89">- New Mexico</tspan><tspan x="0" y="59.87">- Nevada</tspan><tspan x="0" y="69.85">- Oregon</tspan><tspan x="0" y="79.83">- Utah</tspan><tspan x="0" y="89.81">- Washington</tspan><tspan x="0" y="99.78">- Wyoming</tspan></text>
  </g>
  <g>
    <rect class="cls-24" x="30.48" y="180.77" width="539.03" height="273.62" rx="58.53" ry="58.53"/>
    <text class="cls-30" transform="translate(385.57 319.96)"><tspan x="0" y="0">% of Fires By Cause</tspan></text>
    <circle class="cls-9" cx="322.77" cy="309.41" r="29.51"/>
    <path class="cls-10" d="M322.77,309.41l-9.8-24.26c3.24-1.31,6.3-1.91,9.8-1.91v26.16Z"/>
    <path class="cls-11" d="M322.77,309.41l-23.71-11.06c2.88-6.18,7.59-10.65,13.91-13.2l9.8,24.26Z"/>
    <path class="cls-12" d="M322.77,309.41v-26.16c14.45,0,26.16,11.71,26.16,26.16s-11.71,26.16-26.16,26.16-26.16-11.71-26.16-26.16c0-4.12,.71-7.32,2.45-11.06l23.71,11.06Z"/>
    <circle class="cls-28" cx="322.77" cy="309.41" r="14.23"/>
    <g>
      <path class="cls-13" d="M355.9,309.66c0,2.04-.18,4.04-.54,5.97"/>
      <path class="cls-1" d="M355.36,315.63c-2.81,15.44-16.33,27.15-32.59,27.15s-29.78-11.71-32.59-27.15"/>
      <path class="cls-13" d="M290.18,315.63c-.35-1.94-.54-3.93-.54-5.97"/>
    </g>
    <g>
      <path class="cls-13" d="M355.9,308.62c0-2.04-.18-4.04-.54-5.97"/>
      <path class="cls-1" d="M355.36,302.65c-2.81-15.44-16.33-27.15-32.59-27.15s-29.78,11.71-32.59,27.15"/>
      <path class="cls-13" d="M290.18,302.65c-.35,1.94-.54,3.93-.54,5.97"/>
    </g>
    <g>
      <path class="cls-16" d="M359.78,307.85c0-2.04-.16-4.03-.48-5.98"/>
      <path class="cls-6" d="M359.3,301.87c-2.86-17.6-18.12-31.03-36.53-31.03s-33.67,13.43-36.53,31.03"/>
      <path class="cls-16" d="M286.24,301.87c-.32,1.95-.48,3.94-.48,5.98"/>
    </g>
    <g>
      <path class="cls-16" d="M359.78,309.92c0,2.04-.16,4.03-.48,5.98"/>
      <path class="cls-6" d="M359.3,315.9c-2.86,17.6-18.12,31.03-36.53,31.03s-33.67-13.43-36.53-31.03"/>
      <path class="cls-16" d="M286.24,315.9c-.32-1.95-.48-3.94-.48-5.98"/>
    </g>
    <line class="cls-20" x1="340.87" y1="316.75" x2="381.24" y2="316.75"/>
    <line class="cls-7" x1="348.04" y1="280.55" x2="377.89" y2="250.71"/>
    <text class="cls-29" transform="translate(385.44 248.34)"><tspan x="0" y="0">Monthly avg percipitation greater</tspan><tspan x="-5.33" y="9.98">than mean perciptation (1900-2014)</tspan></text>
    <text class="cls-29" transform="translate(394.63 281.41)"><tspan x="0" y="0">Monthly avg temperature greater</tspan><tspan x="-6.25" y="9.98">than mean temperature (1900-2014)</tspan></text>
    <text class="cls-29" transform="translate(389.78 351.3)"><tspan x="0" y="0">Monthly avg percipitation less than</tspan><tspan x="7.16" y="9.98">mean perciptation (1900-2014)</tspan></text>
    <text class="cls-29" transform="translate(375.68 380.58)"><tspan x="0" y="0">Monthly avg temperature less</tspan><tspan x="-12.26" y="9.98">than mean temperature (1900-2014)</tspan></text>
    <line class="cls-20" x1="350.57" y1="290.97" x2="388.78" y2="280.87"/>
    <line class="cls-7" x1="354.67" y1="328.56" x2="387.2" y2="347.82"/>
    <line class="cls-7" x1="342.67" y1="336.14" x2="371.1" y2="380.35"/>
    <circle class="cls-5" cx="178.4" cy="295.29" r="28.99"/>
    <circle class="cls-5" cx="178.4" cy="298.65" r="25.62"/>
    <circle class="cls-5" cx="178.4" cy="302.28" r="22"/>
    <circle class="cls-5" cx="178.4" cy="305.9" r="18.38"/>
    <circle class="cls-5" cx="178.4" cy="309.78" r="14.49"/>
    <circle class="cls-5" cx="178.4" cy="313.41" r="10.87"/>
    <text class="cls-27" transform="translate(173.78 294.35)"><tspan x="0" y="0">100</tspan></text>
    <text class="cls-27" transform="translate(175.32 301.62)"><tspan x="0" y="0">50</tspan></text>
    <text class="cls-27" transform="translate(173.78 286.24)"><tspan x="0" y="0">150</tspan></text>
    <text class="cls-27" transform="translate(173.78 279.09)"><tspan x="0" y="0">200</tspan></text>
    <text class="cls-27" transform="translate(173.78 271.84)"><tspan x="0" y="0">250</tspan></text>
    <text class="cls-27" transform="translate(173.78 265.18)"><tspan x="0" y="0">300</tspan></text>
    <text class="cls-30" transform="translate(129.99 246.82)"><tspan x="0" y="0">Total Number of Fires</tspan></text>
    <circle class="cls-28" cx="178.4" cy="319.42" r="4.85"/>
    <line class="cls-20" x1="178.49" y1="314.75" x2="218.87" y2="314.75"/>
    <line class="cls-20" x1="137.75" y1="319.49" x2="178.12" y2="319.49"/>
    <text class="cls-29" transform="translate(221.04 316.22)"><tspan x="0" y="0">&lt;15 Fires</tspan></text>
    <g>
      <circle class="cls-36" cx="133.3" cy="365.19" r="10.68"/>
      <text class="cls-29" transform="translate(115.97 385.78)"><tspan x="0" y="0">Lightning</tspan></text>
      <text class="cls-29" transform="translate(105.34 402.49)"><tspan x="0" y="0">*Includes Natural, Unknown, and Other</tspan></text>
      <g>
        <circle class="cls-37" cx="178.26" cy="365.19" r="10.68"/>
        <text class="cls-29" transform="translate(164.86 385.78)"><tspan x="0" y="0">Human</tspan></text>
      </g>
      <g>
        <circle class="cls-34" cx="222.6" cy="365.19" r="10.68"/>
        <text class="cls-29" transform="translate(210.59 385.78)"><tspan x="0" y="0">Other*</tspan></text>
      </g>
    </g>
    <text class="cls-29" transform="translate(77.48 317.07)"><tspan x="0" y="0">Most common fire</tspan><tspan x="0" y="9.98">cause that month</tspan></text>
  </g>
  <g>
    <text class="cls-23" transform="translate(148.61 88)"><tspan x="0" y="0">How to Read</tspan></text>
    <text class="cls-26" transform="translate(264.34 221.02)"><tspan class="cls-21" x="0" y="0">W</tspan><tspan x="22.68" y="0">all 1</tspan></text>
    <text class="cls-25" transform="translate(264.34 620.46)"><tspan class="cls-21" x="0" y="0">W</tspan><tspan x="22.68" y="0">all 2</tspan></text>
    <line class="cls-2" x1="130.52" y1="124.41" x2="469.48" y2="124.41"/>
    <line class="cls-2" x1="130.52" y1="515.7" x2="469.48" y2="515.7"/>
  </g>
</svg>