<?xml version="1.0" encoding="UTF-8"?>
<svg id="Layer_1" data-name="Layer 1" xmlns="http://www.w3.org/2000/svg" xmlns:xlink="http://www.w3.org/1999/xlink" viewBox="0 0 600 1100">
  <defs>
    <style>
      .cls-1 {
        letter-spacing: -.04em;
      }

      .cls-2 {
        font-size: 9.07px;
      }

      .cls-2, .cls-3, .cls-4, .cls-5, .cls-6, .cls-7 {
        fill: #010101;
      }

      .cls-2, .cls-3, .cls-6, .cls-8, .cls-9 {
        font-family: Helvetica-Light, Helvetica;
      }

      .cls-10 {
        font-size: 50px;
      }

      .cls-10, .cls-11, .cls-12, .cls-13 {
        fill: #e9e8e8;
      }

      .cls-10, .cls-14, .cls-5 {
        font-family: Helvetica-Bold, Helvetica;
      }

      .cls-15 {
        letter-spacing: -.02em;
      }

      .cls-3 {
        font-size: 12.09px;
      }

      .cls-16, .cls-14, .cls-8, .cls-17, .cls-9 {
        fill: #fff;
      }

      .cls-18, .cls-19 {
        fill: #ffca39;
      }

      .cls-20, .cls-21 {
        fill: #989798;
      }

      .cls-22, .cls-23, .cls-24 {
        fill: #b83130;
      }

      .cls-25, .cls-26 {
        fill: #db7a27;
      }

      .cls-27 {
        fill: #33a0a8;
      }

      .cls-28 {
        fill: #4b4d56;
      }

      .cls-14, .cls-5 {
        font-size: 25px;
      }

      .cls-12 {
        stroke: #e9e8e8;
      }

      .cls-12, .cls-29, .cls-30, .cls-31, .cls-13, .cls-32, .cls-33, .cls-7, .cls-19, .cls-26, .cls-23, .cls-34, .cls-35, .cls-36, .cls-37, .cls-38, .cls-39, .cls-24, .cls-21, .cls-40 {
        stroke-miterlimit: 10;
      }

      .cls-12, .cls-30, .cls-34, .cls-35, .cls-36, .cls-37, .cls-38, .cls-39 {
        stroke-width: 2px;
      }

      .cls-41 {
        fill: url(#linear-gradient);
      }

      .cls-29 {
        stroke-dasharray: 0 4;
      }

      .cls-29, .cls-30, .cls-31, .cls-32, .cls-33, .cls-34, .cls-35, .cls-36, .cls-37, .cls-38, .cls-39, .cls-40 {
        fill: none;
      }

      .cls-29, .cls-31, .cls-33 {
        stroke: #fff;
      }

      .cls-29, .cls-13, .cls-40 {
        stroke-width: .5px;
      }

      .cls-30 {
        stroke-dasharray: 0 0 11.69 0;
      }

      .cls-30, .cls-37 {
        stroke: #33a0a8;
      }

      .cls-31 {
        stroke-linecap: round;
      }

      .cls-13, .cls-32, .cls-7, .cls-19, .cls-26, .cls-23, .cls-34, .cls-39, .cls-24, .cls-21, .cls-40 {
        stroke: #010101;
      }

      .cls-32, .cls-33, .cls-24, .cls-21 {
        stroke-width: .75px;
      }

      .cls-6 {
        font-size: 6.15px;
      }

      .cls-8 {
        font-size: 8.32px;
      }

      .cls-35 {
        stroke: #b83130;
      }

      .cls-36 {
        stroke: #989798;
      }

      .cls-38 {
        stroke: #4c4d56;
      }

      .cls-17 {
        font-family: Helvetica, Helvetica;
        font-size: 12px;
      }

      .cls-39 {
        stroke-dasharray: 0 0 11.49 0;
      }

      .cls-9 {
        font-size: 9px;
      }
    </style>
    <linearGradient id="linear-gradient" x1="22.02" y1="302.79" x2="570.2" y2="790.3" gradientTransform="matrix(1, 0, 0, 1, 0, 0)" gradientUnits="userSpaceOnUse">
      <stop offset="0" stop-color="#9f3030"/>
      <stop offset=".17" stop-color="#a1332f"/>
      <stop offset=".31" stop-color="#aa3d2d"/>
      <stop offset=".44" stop-color="#b84e2b"/>
      <stop offset=".55" stop-color="#cc6528"/>
      <stop offset=".65" stop-color="#d56f26"/>
      <stop offset=".77" stop-color="#e58225"/>
      <stop offset=".82" stop-color="#e78a27"/>
      <stop offset=".89" stop-color="#efa02d"/>
      <stop offset=".99" stop-color="#fcc437"/>
      <stop offset="1" stop-color="#ffca39"/>
    </linearGradient>
  </defs>
  <rect class="cls-41" width="600" height="1100"/>
  <rect class="cls-28" x="30.48" y="572.64" width="539.03" height="458.78" rx="58.53" ry="58.53"/>
  <g>
    <g>
      <circle class="cls-36" cx="415.57" cy="918.47" r="64.83"/>
      <circle class="cls-36" cx="415.57" cy="977.4" r="5.89"/>
      <circle class="cls-36" cx="415.57" cy="965.61" r="17.68"/>
      <circle class="cls-36" cx="415.57" cy="953.83" r="29.47"/>
      <circle class="cls-36" cx="415.57" cy="942.04" r="41.25"/>
      <circle class="cls-36" cx="415.57" cy="930.25" r="53.04"/>
      <circle class="cls-35" cx="416.39" cy="716.42" r="74.25"/>
      <circle class="cls-35" cx="416.39" cy="782.42" r="8.25"/>
      <circle class="cls-35" cx="416.39" cy="765.92" r="24.75"/>
      <circle class="cls-35" cx="416.39" cy="749.42" r="41.25"/>
      <circle class="cls-35" cx="416.39" cy="732.92" r="57.75"/>
      <line class="cls-33" x1="416.27" y1="774.05" x2="518.34" y2="774.05"/>
      <line class="cls-33" x1="416.39" y1="971.51" x2="518.46" y2="971.51"/>
      <line class="cls-33" x1="416.39" y1="947.46" x2="518.46" y2="947.46"/>
      <line class="cls-33" x1="416.39" y1="924.12" x2="518.46" y2="924.12"/>
      <line class="cls-33" x1="416.39" y1="900.32" x2="518.46" y2="900.32"/>
      <line class="cls-33" x1="416.39" y1="876.74" x2="518.46" y2="876.74"/>
      <line class="cls-33" x1="416.39" y1="853.17" x2="518.46" y2="853.17"/>
      <line class="cls-33" x1="416.39" y1="740.58" x2="518.46" y2="740.58"/>
      <line class="cls-33" x1="416.39" y1="707.58" x2="518.46" y2="707.58"/>
      <line class="cls-33" x1="416.39" y1="674.58" x2="518.46" y2="674.58"/>
      <line class="cls-33" x1="416.39" y1="641.81" x2="518.46" y2="641.81"/>
      <text class="cls-9" transform="translate(521.74 854.84)"><tspan x="0" y="0">350k</tspan></text>
      <text class="cls-9" transform="translate(521.74 643.48)"><tspan x="0" y="0">2,400k</tspan></text>
      <text class="cls-9" transform="translate(521.74 676.6)"><tspan x="0" y="0">1,850k</tspan></text>
      <text class="cls-9" transform="translate(521.74 709.72)"><tspan x="0" y="0">1,300k</tspan></text>
      <text class="cls-9" transform="translate(521.74 742.84)"><tspan x="0" y="0">750k</tspan></text>
      <text class="cls-9" transform="translate(521.74 775.96)"><tspan x="0" y="0">200k</tspan></text>
      <text class="cls-9" transform="translate(521.74 878.7)"><tspan x="0" y="0">290k</tspan></text>
      <text class="cls-9" transform="translate(521.74 902.55)"><tspan x="0" y="0">230k</tspan></text>
      <text class="cls-9" transform="translate(521.74 926.41)"><tspan x="0" y="0">170k</tspan></text>
      <text class="cls-9" transform="translate(521.74 950.27)"><tspan x="0" y="0">110k</tspan></text>
      <text class="cls-9" transform="translate(521.74 974.12)"><tspan x="0" y="0">20k</tspan></text>
    </g>
    <g>
      <g>
        <circle class="cls-24" cx="161.08" cy="926.21" r="5.82"/>
        <path class="cls-27" d="M70.66,926.24s2.23-2.37,3.82-.78c1.59,1.59,2.58,.78,2.58,.78,0,0-2.33,2.3-3.92,.71-1.59-1.59-2.48-.71-2.48-.71Z"/>
        <rect class="cls-20" x="161.85" y="925.38" width="94.33" height="1.65" rx=".83" ry=".83"/>
        <line class="cls-38" x1="178.37" y1="927.03" x2="178.37" y2="925.38"/>
        <line class="cls-38" x1="204.27" y1="927.03" x2="204.27" y2="925.38"/>
        <line class="cls-38" x1="230.17" y1="925.38" x2="230.17" y2="927.03"/>
        <rect class="cls-22" x="80.48" y="925.38" width="79.67" height="1.65" rx=".83" ry=".83"/>
        <line class="cls-38" x1="82.2" y1="925.38" x2="82.2" y2="927.03"/>
        <line class="cls-38" x1="108.1" y1="925.38" x2="108.1" y2="927.03"/>
        <line class="cls-38" x1="133.99" y1="927.03" x2="133.99" y2="925.38"/>
        <text class="cls-8" transform="translate(176.06 922.66)"><tspan x="0" y="0">5</tspan></text>
        <text class="cls-8" transform="translate(199.65 922.66)"><tspan x="0" y="0">10</tspan></text>
        <text class="cls-8" transform="translate(225.54 922.66)"><tspan x="0" y="0">15</tspan></text>
        <text class="cls-8" transform="translate(77.58 922.66)"><tspan x="0" y="0">15</tspan></text>
        <text class="cls-8" transform="translate(103.47 922.66)"><tspan x="0" y="0">10</tspan></text>
        <text class="cls-8" transform="translate(131.68 922.66)"><tspan x="0" y="0">5</tspan></text>
        <text class="cls-9" transform="translate(108.1 958.56)"><tspan x="0" y="0">duration </tspan><tspan x="0" y="10.8">of fire x10 </tspan><tspan x="0" y="21.6">(days)</tspan></text>
        <text class="cls-9" transform="translate(62.06 958.56)"><tspan x="0" y="0"># of days </tspan><tspan x="0" y="10.8">rained </tspan><tspan x="0" y="21.6">during </tspan><tspan x="0" y="32.4">fir</tspan><tspan class="cls-15" x="7.5" y="32.4">e</tspan></text>
        <polyline class="cls-31" points="160.16 944.21 120.32 944.21 80.49 944.21"/>
        <polyline class="cls-31" points="256.18 934.81 256.18 944.21 161.85 944.21"/>
        <polyline class="cls-31" points="70.66 934.81 70.66 944.21 77.53 944.21"/>
        <line class="cls-31" x1="77.53" y1="944.21" x2="77.53" y2="934.81"/>
        <line class="cls-31" x1="73.86" y1="944.21" x2="73.86" y2="949.86"/>
        <line class="cls-31" x1="80.48" y1="934.81" x2="80.48" y2="944.21"/>
        <text class="cls-9" transform="translate(186.87 958.83)"><tspan x="0" y="0"># of buildings </tspan><tspan x="0" y="10.8">at risk x10,000</tspan></text>
        <line class="cls-31" x1="209.02" y1="944.21" x2="209.02" y2="949.86"/>
        <line class="cls-31" x1="160.16" y1="934.81" x2="160.16" y2="944.21"/>
        <line class="cls-31" x1="161.85" y1="934.81" x2="161.85" y2="944.21"/>
        <text class="cls-9" transform="translate(139.79 895)"><tspan x="0" y="0">Fill: Cause</tspan><tspan x="-24.26" y="10.8">Size: Hectares Burned</tspan></text>
        <line class="cls-31" x1="160.8" y1="910.08" x2="160.8" y2="915.73"/>
        <line class="cls-31" x1="109.18" y1="949.86" x2="109.18" y2="944.21"/>
      </g>
      <g>
        <g id="ID_murphy_complex" data-name="ID murphy complex">
          <circle class="cls-24" cx="160.32" cy="797.26" r="3.98"/>
          <rect class="cls-22" x="110.7" y="796.47" width="48.93" height="1.57" rx=".79" ry=".79"/>
          <rect class="cls-20" x="161.1" y="796.47" width="48.06" height="1.57" rx=".79" ry=".79"/>
        </g>
        <g id="ID_mustang_complex" data-name="ID mustang complex">
          <circle class="cls-24" cx="160.32" cy="830.82" r="3.98"/>
          <rect class="cls-22" x="120.31" y="830.03" width="39.32" height="1.57" rx=".79" ry=".79"/>
          <rect class="cls-20" x="161.1" y="830.03" width="15.73" height="1.57" rx=".79" ry=".79"/>
        </g>
        <g id="ID_long_butte" data-name="ID long butte">
          <path class="cls-20" d="M161.1,823.21h.09c.43,0,.79-.35,.79-.79h0c0-.43-.35-.79-.79-.79h-.09"/>
          <circle class="cls-24" cx="160.32" cy="822.43" r="3.57"/>
          <rect class="cls-22" x="153.52" y="821.64" width="6.12" height="1.57" rx=".79" ry=".79"/>
        </g>
        <g id="ID_cascade_complex" data-name="ID cascade complex">
          <circle class="cls-24" cx="160.32" cy="814.04" r="3.51"/>
          <rect class="cls-22" x="114.2" y="813.25" width="45.44" height="1.57" rx=".79" ry=".79"/>
          <rect class="cls-20" x="161.1" y="813.25" width="23.59" height="1.57" rx=".79" ry=".79"/>
        </g>
        <g id="ID_east_zone_complex" data-name="ID east zone complex">
          <circle class="cls-24" cx="160.32" cy="805.65" r="3.51"/>
          <rect class="cls-22" x="90.6" y="804.86" width="69.03" height="1.57" rx=".79" ry=".79"/>
          <rect class="cls-20" x="161.1" y="804.86" width="21.85" height="1.57" rx=".79" ry=".79"/>
        </g>
      </g>
      <path class="cls-16" d="M146.7,639.91l1.91,8.29,.42,2.31,.42-2.26,1.64-8.34h3.19l1.72,8.29,.44,2.31,.45-2.22,1.93-8.38h3.08l-4.07,14.48h-2.9l-1.75-8.47-.51-2.8-.51,2.8-1.75,8.47h-2.81l-4.1-14.48h3.21Z"/>
      <path class="cls-16" d="M166.75,639.91h3.42l5.12,14.48h-3.28l-.96-2.98h-5.33l-.98,2.98h-3.16l5.17-14.48Zm-.2,9.01h3.71l-1.83-5.7-1.88,5.7Z"/>
      <line class="cls-29" x1="160.03" y1="660.16" x2="160.03" y2="789.47"/>
      <circle class="cls-24" cx="160.03" cy="675.38" r="7.01"/>
      <circle class="cls-21" cx="159.39" cy="701.75" r="11.89"/>
      <line class="cls-31" x1="179.08" y1="646.04" x2="200.74" y2="646.04"/>
      <text class="cls-17" transform="translate(204.03 649.97)"><tspan x="0" y="0">State</tspan></text>
      <line class="cls-31" x1="170.96" y1="674.91" x2="192.62" y2="674.91"/>
      <text class="cls-9" transform="translate(197.53 676.83)"><tspan x="0" y="0">Total Hectares Burned</tspan><tspan x="0" y="10.8">by Lightning Fires</tspan></text>
      <text class="cls-9" transform="translate(228.17 763.95)"><tspan x="0" y="0">Total Number</tspan><tspan x="0" y="10.8">of Lightning Fires</tspan></text>
      <line class="cls-31" x1="173.89" y1="701.93" x2="195.55" y2="701.93"/>
      <text class="cls-9" transform="translate(198.17 704.06)"><tspan x="0" y="0">Total Number of Properties</tspan><tspan x="0" y="10.8">Threatened by Lightning Fires</tspan></text>
      <line class="cls-31" x1="94.04" y1="764.19" x2="223.45" y2="764.19"/>
      <line class="cls-31" x1="94.04" y1="758.1" x2="94.04" y2="770.28"/>
      <line class="cls-31" x1="119.91" y1="758.1" x2="119.91" y2="770.28"/>
      <line class="cls-31" x1="145.79" y1="758.55" x2="145.79" y2="770.73"/>
      <line class="cls-31" x1="171.66" y1="759.45" x2="171.66" y2="771.63"/>
      <line class="cls-31" x1="197.53" y1="759.45" x2="197.53" y2="771.63"/>
      <line class="cls-31" x1="223.41" y1="759.45" x2="223.41" y2="771.63"/>
      <polyline class="cls-31" points="210.36 789.66 219.13 789.66 219.44 834.8 210.67 834.8"/>
      <text class="cls-9" transform="translate(230.45 814.04)"><tspan x="0" y="0">Top Five Fires</tspan><tspan x="0" y="10.8">Statewide</tspan></text>
      <line class="cls-31" x1="219.3" y1="814.04" x2="227.13" y2="814.04"/>
    </g>
    <text class="cls-9" transform="translate(53.29 625.98)"><tspan x="0" y="0">AZ</tspan><tspan x="0" y="10.8">CA</tspan><tspan x="0" y="21.6">CO</tspan><tspan x="0" y="32.4">ID</tspan><tspan x="0" y="43.2">MT</tspan><tspan x="0" y="54">NM</tspan><tspan x="0" y="64.8">NV</tspan><tspan x="0" y="75.6">OR</tspan><tspan x="0" y="86.4">UT</tspan><tspan x="0" y="97.2">WA</tspan><tspan x="0" y="108">WY</tspan></text>
    <text class="cls-9" transform="translate(67.48 625.98)"><tspan x="0" y="0">- Arizona</tspan><tspan x="0" y="10.8">- California</tspan><tspan x="0" y="21.6">- Colorado</tspan><tspan x="0" y="32.4">- Idaho</tspan><tspan x="0" y="43.2">- Montana</tspan><tspan x="0" y="54">- New Mexico</tspan><tspan x="0" y="64.8">- Nevada</tspan><tspan x="0" y="75.6">- Oregon</tspan><tspan x="0" y="86.4">- Utah</tspan><tspan x="0" y="97.2">- Washington</tspan><tspan x="0" y="108">- Wyoming</tspan></text>
  </g>
  <g>
    <rect class="cls-11" x="30.48" y="180.77" width="539.03" height="273.62" rx="58.53" ry="58.53"/>
    <text class="cls-3" transform="translate(395.08 325.49)"><tspan x="0" y="0">% of Fires By Cause</tspan></text>
    <ellipse class="cls-7" cx="325.42" cy="313.8" rx="32.74" ry="32.71"/>
    <path class="cls-19" d="M325.42,313.8l-10.87-26.89c3.6-1.45,6.99-2.11,10.87-2.11v29Z"/>
    <path class="cls-26" d="M325.42,313.8l-26.3-12.26c3.2-6.85,8.42-11.8,15.43-14.63l10.87,26.89Z"/>
    <path class="cls-23" d="M325.42,313.8v-29c16.03,0,29.02,12.99,29.02,29s-12.99,29-29.02,29-29.02-12.99-29.02-29c0-4.57,.79-8.12,2.72-12.26l26.3,12.26Z"/>
    <ellipse class="cls-4" cx="325.42" cy="313.8" rx="15.79" ry="15.78"/>
    <g>
      <path class="cls-34" d="M362.17,314.07c0,2.04-.17,4.03-.48,5.98"/>
      <path class="cls-39" d="M361.69,320.05c-2.86,17.44-18.01,30.75-36.27,30.75s-33.41-13.31-36.27-30.74"/>
      <path class="cls-34" d="M289.16,320.05c-.32-1.95-.48-3.94-.48-5.98"/>
    </g>
    <g>
      <path class="cls-34" d="M362.17,312.93c0-2.04-.17-4.03-.48-5.98"/>
      <path class="cls-39" d="M361.69,306.95c-2.86-17.44-18.01-30.75-36.27-30.75s-33.41,13.31-36.27,30.74"/>
      <path class="cls-34" d="M289.16,306.95c-.32,1.95-.48,3.94-.48,5.98"/>
    </g>
    <g>
      <path class="cls-37" d="M366.48,312.07c0-2.03-.15-4.03-.43-5.98"/>
      <path class="cls-30" d="M366.05,306.08c-2.9-19.82-19.98-35.04-40.62-35.04s-37.72,15.22-40.62,35.04"/>
      <path class="cls-37" d="M284.8,306.08c-.29,1.95-.43,3.95-.43,5.98"/>
    </g>
    <g>
      <path class="cls-37" d="M366.48,314.36c0,2.03-.15,4.03-.43,5.98"/>
      <path class="cls-30" d="M366.05,320.35c-2.9,19.82-19.98,35.04-40.62,35.04s-37.72-15.22-40.62-35.04"/>
      <path class="cls-37" d="M284.8,320.35c-.29-1.95-.43-3.95-.43-5.98"/>
    </g>
    <line class="cls-40" x1="345.49" y1="321.94" x2="390.28" y2="321.94"/>
    <line class="cls-32" x1="353.45" y1="281.81" x2="386.56" y2="248.72"/>
    <text class="cls-2" transform="translate(396.03 246.09)"><tspan x="0" y="0">Monthly avg percipitation greater</tspan><tspan x="-5.81" y="10.88">than mean perciptation (1900-2014)</tspan></text>
    <text class="cls-2" transform="translate(406.22 282.76)"><tspan x="0" y="0">Monthly avg temperature greater</tspan><tspan x="-6.82" y="10.88">than mean temperature (1900-2014)</tspan></text>
    <text class="cls-2" transform="translate(400.9 360.23)"><tspan x="0" y="0">Monthly avg percipitation less than</tspan><tspan x="7.81" y="10.88">mean perciptation (1900-2014)</tspan></text>
    <text class="cls-2" transform="translate(385.1 392.7)"><tspan x="0" y="0">Monthly avg temperature less</tspan><tspan x="-13.37" y="10.88">than mean temperature (1900-2014)</tspan></text>
    <line class="cls-40" x1="356.26" y1="293.36" x2="398.65" y2="282.16"/>
    <line class="cls-32" x1="360.81" y1="335.03" x2="396.9" y2="356.38"/>
    <line class="cls-32" x1="347.5" y1="343.43" x2="379.03" y2="392.45"/>
    <ellipse class="cls-13" cx="165.26" cy="298.14" rx="32.16" ry="32.13"/>
    <ellipse class="cls-13" cx="165.26" cy="305.89" rx="24.4" ry="24.39"/>
    <ellipse class="cls-13" cx="165.26" cy="314.21" rx="16.08" ry="16.07"/>
    <text class="cls-6" transform="translate(160.13 297.11)"><tspan x="0" y="0">100</tspan></text>
    <text class="cls-6" transform="translate(160.13 280.18)"><tspan x="0" y="0">200</tspan></text>
    <text class="cls-6" transform="translate(160.13 264.76)"><tspan x="0" y="0">300</tspan></text>
    <text class="cls-3" transform="translate(108.8 244.41)"><tspan x="0" y="0">Total Number of Fires</tspan></text>
    <circle class="cls-4" cx="165.26" cy="324.9" r="5.38"/>
    <line class="cls-40" x1="165.36" y1="319.72" x2="210.15" y2="319.72"/>
    <line class="cls-40" x1="120.16" y1="324.97" x2="164.95" y2="324.97"/>
    <text class="cls-2" transform="translate(212.56 321.35)"><tspan x="0" y="0">&lt;15 Fires</tspan></text>
    <g>
      <ellipse class="cls-22" cx="115.22" cy="375.64" rx="11.85" ry="11.84"/>
      <text class="cls-2" transform="translate(96.3 398.46)"><tspan x="0" y="0">Lightning</tspan></text>
      <text class="cls-2" transform="translate(85.5 416.98)"><tspan x="0" y="0">*Includes Natural, Unknown, and Other</tspan></text>
      <g>
        <ellipse class="cls-25" cx="165.1" cy="375.64" rx="11.85" ry="11.84"/>
        <text class="cls-2" transform="translate(150.47 398.46)"><tspan x="0" y="0">Human</tspan></text>
      </g>
      <g>
        <ellipse class="cls-18" cx="214.29" cy="375.64" rx="11.85" ry="11.84"/>
        <text class="cls-2" transform="translate(201.18 398.46)"><tspan x="0" y="0">Other*</tspan></text>
      </g>
    </g>
    <text class="cls-2" transform="translate(53.29 322.29)"><tspan x="0" y="0">Most common fire</tspan><tspan x="0" y="10.88">cause that month</tspan></text>
  </g>
  <g>
    <text class="cls-10" transform="translate(148.61 88)"><tspan x="0" y="0">How to Read</tspan></text>
    <text class="cls-5" transform="translate(264.34 221.02)"><tspan class="cls-1" x="0" y="0">W</tspan><tspan x="22.68" y="0">all 1</tspan></text>
    <text class="cls-14" transform="translate(264.34 620.46)"><tspan class="cls-1" x="0" y="0">W</tspan><tspan x="22.68" y="0">all 2</tspan></text>
    <line class="cls-12" x1="130.52" y1="124.41" x2="469.48" y2="124.41"/>
    <line class="cls-12" x1="130.52" y1="515.7" x2="469.48" y2="515.7"/>
  </g>
</svg>